<svg xmlns="http://www.w3.org/2000/svg" viewBox="0 0 1000 1000"><style>path{fill:#999}</style><path d="M990 10v980H10V10h980m10-10H0v1000h1000V0z"/><path d="M233 282v186H47V282h186m12-12H35v210h210V270zm228 12v186H287V282h186m12-12H275v210h210V270zm228 12v186H527V282h186m12-12H515v210h210V270zm228 12v186H767V282h186m12-12H755v210h210V270z"/><path d="M147.854 322.195h18.457v74.78c0 10.206-3.186 18.311-9.558 24.316s-14.784 9.009-25.232 9.009c-11.133 0-19.728-2.831-25.781-8.496-6.055-5.664-9.082-13.5-9.082-23.511h18.457c0 5.665 1.403 9.924 4.211 12.781 2.807 2.856 6.872 4.285 12.195 4.285 4.98 0 8.947-1.645 11.902-4.936 2.954-3.29 4.431-7.835 4.431-13.638v-74.59zm276.311 56.103c0 10.45-1.807 19.618-5.42 27.502-3.614 7.886-8.778 13.941-15.491 18.164-6.714 4.224-14.441 6.335-23.181 6.335-8.643 0-16.346-2.111-23.108-6.335-6.764-4.223-11.988-10.241-15.674-18.054-3.688-7.812-5.555-16.82-5.603-27.026v-6.006c0-10.4 1.842-19.58 5.53-27.539 3.686-7.958 8.886-14.05 15.601-18.274 6.713-4.223 14.416-6.335 23.108-6.335 8.69 0 16.394 2.087 23.108 6.262 6.713 4.175 11.902 10.181 15.564 18.018s5.517 16.956 5.566 27.356v5.932zm-18.53-5.566c0-11.816-2.234-20.874-6.702-27.173s-10.803-9.448-19.006-9.448c-8.009 0-14.271 3.138-18.787 9.412-4.517 6.275-6.824 15.15-6.921 26.624v6.152c0 11.719 2.282 20.777 6.848 27.173 4.565 6.397 10.9 9.595 19.006 9.595 8.203 0 14.513-3.124 18.933-9.375 4.418-6.25 6.628-15.381 6.628-27.393v-5.567zm256.589 56.103h-18.457v-47.314h-47.681v47.314h-18.53v-106.64h18.53v44.385h47.681v-44.385h18.457v106.64zm239.964 0h-18.53l-47.534-75.659v75.659h-18.53v-106.64h18.53l47.681 75.952v-75.952h18.384v106.64zM57.218 651.531v30.615h-12.89v-78.203h36.053c10.697 0 19.078 2.185 25.144 6.553 6.064 4.369 9.097 10.151 9.097 17.349 0 7.592-2.966 13.437-8.896 17.536-5.931 4.101-14.424 6.15-25.479 6.15H57.218zm0-8.432h23.163c6.892 0 12.174-1.3 15.845-3.9 3.669-2.601 5.505-6.358 5.505-11.272 0-4.663-1.836-8.394-5.505-11.191-3.67-2.798-8.706-4.251-15.106-4.358H57.218v30.721zm145.519-10.152c-1.88-.25-3.917-.376-6.109-.376-8.147 0-13.674 2.775-16.583 8.325v41.25h-12.421v-58.115h12.085l.201 6.714c4.073-5.191 9.847-7.788 17.322-7.788 2.417 0 4.251.251 5.505.752v9.238zm45.281 19.605c0-5.693 1.398-10.813 4.196-15.361 2.797-4.547 6.691-8.057 11.682-10.527 4.99-2.471 10.686-3.706 17.087-3.706 9.892 0 17.893 2.739 24.002 8.218 6.11 5.479 9.165 12.766 9.165 21.86v.698c0 5.658-1.354 10.733-4.062 15.228-2.708 4.493-6.58 7.994-11.615 10.5-5.036 2.507-10.821 3.76-17.355 3.76-9.847 0-17.825-2.739-23.935-8.218-6.109-5.479-9.165-12.729-9.165-21.753v-.699zm12.488 1.181c0 6.445 1.868 11.62 5.606 15.522 3.736 3.903 8.738 5.854 15.005 5.854 6.311 0 11.323-1.979 15.039-5.935 3.715-3.957 5.572-9.498 5.572-16.624 0-6.373-1.891-11.539-5.673-15.495-3.783-3.957-8.807-5.936-15.073-5.936-6.133 0-11.078 1.952-14.837 5.854-3.759 3.906-5.639 9.492-5.639 16.76zm127.996 1.504l-7.788 6.499v20.41h-12.42v-82.5h12.42v49.897l6.647-6.392 22.625-19.121h15.106l-28.265 24.277 31.555 33.838h-14.569l-25.311-26.908zm84.623-2.685c0-5.693 1.398-10.813 4.196-15.361 2.797-4.547 6.691-8.057 11.683-10.527 4.99-2.471 10.686-3.706 17.085-3.706 9.892 0 17.893 2.739 24.003 8.218 6.109 5.479 9.164 12.766 9.164 21.86v.698c0 5.658-1.354 10.733-4.062 15.228-2.709 4.493-6.58 7.994-11.615 10.5-5.035 2.507-10.821 3.76-17.355 3.76-9.847 0-17.825-2.739-23.935-8.218-6.109-5.479-9.165-12.729-9.165-21.753v-.699zm12.489 1.181c0 6.445 1.868 11.62 5.605 15.522 3.737 3.903 8.739 5.854 15.005 5.854 6.311 0 11.323-1.979 15.039-5.935 3.715-3.957 5.572-9.498 5.572-16.624 0-6.373-1.892-11.539-5.673-15.495-3.783-3.957-8.807-5.936-15.073-5.936-6.131 0-11.077 1.952-14.836 5.854-3.759 3.906-5.639 9.492-5.639 16.76zm169.083 0c0 8.845-2.528 15.971-7.586 21.377-5.059 5.407-11.907 8.11-20.545 8.11-8.818 0-15.755-2.237-20.813-6.714v27.983h-12.421V624.03h11.347l.604 6.445c5.058-5.013 12.086-7.52 21.082-7.52 8.729 0 15.632 2.632 20.712 7.896s7.62 12.587 7.62 21.968v.914zm-12.42-1.128c0-6.553-1.746-11.727-5.237-15.522s-8.281-5.693-14.367-5.693c-7.52 0-13.159 2.668-16.919 8.003v27.769c3.715 5.3 9.399 7.949 17.053 7.949 5.952 0 10.686-1.889 14.2-5.667 3.513-3.778 5.27-9.39 5.27-16.839zm66.766-43.989c0-1.611.614-2.972 1.846-4.082 1.23-1.109 3.055-1.665 5.473-1.665 2.416 0 4.251.556 5.505 1.665 1.253 1.11 1.88 2.471 1.88 4.082s-.627 2.954-1.88 4.028c-1.254 1.074-3.089 1.611-5.505 1.611-2.418 0-4.242-.537-5.473-1.611-1.232-1.074-1.846-2.416-1.846-4.028zm13.428 73.53H710.05v-58.115h12.421v58.115zm88.518 1.075c-9.848 0-17.859-2.587-24.036-7.762-6.177-5.174-9.265-12.093-9.265-20.759v-1.826c0-5.765 1.376-10.912 4.129-15.442 2.753-4.529 6.602-8.074 11.548-10.635 4.945-2.56 10.306-3.84 16.079-3.84 9.444 0 16.785 2.489 22.021 7.466 5.237 4.978 7.855 12.104 7.855 21.377v4.136h-49.213c.179 5.729 2.271 10.357 6.278 13.885 4.005 3.526 9.097 5.29 15.273 5.29 4.387 0 8.101-.716 11.146-2.148 3.043-1.432 5.707-3.33 7.989-5.693l7.587 4.727c-6.086 7.482-15.217 11.224-27.391 11.224zm-1.545-52.1c-5.013 0-9.221 1.459-12.621 4.377-3.402 2.919-5.506 7.01-6.312 12.273h36.39v-.752c-.359-5.049-2.06-8.961-5.104-11.736-3.043-2.774-7.16-4.162-12.353-4.162zm105.841 37.544l17.993-44.634h12.689l-26.051 58.115h-9.466l-26.318-58.115h12.688l18.465 44.634z"/></svg>