<svg xmlns="http://www.w3.org/2000/svg" viewBox="0 0 2000 2000" fill="#999"><path d="M530 720v260H270V720h260m20-20H250v300h300V700zm1180 20v260h-260V720h260m20-20h-300v300h300V700zm-820 20v260H670V720h260m20-20H650v300h300V700zm380 20v260h-260V720h260m20-20h-300v300h300V700z"/><path d="M421.851 755.325h30.762v124.634c0 17.01-5.31 30.518-15.93 40.527s-24.64 15.014-42.054 15.014c-18.555 0-32.879-4.719-42.969-14.16-10.092-9.439-15.137-22.501-15.137-39.185h30.762c0 9.441 2.338 16.541 7.019 21.301 4.679 4.761 11.454 7.141 20.325 7.141 8.301 0 14.912-2.741 19.836-8.227 4.923-5.483 7.385-13.06 7.385-22.729V755.325zm452.124 93.506c0 17.416-3.012 32.696-9.033 45.837-6.023 13.144-14.629 23.235-25.818 30.273-11.19 7.04-24.069 10.559-38.635 10.559-14.404 0-27.243-3.519-38.513-10.559-11.272-7.038-19.979-17.069-26.123-30.09-6.146-13.02-9.258-28.034-9.338-45.044v-10.01c0-17.334 3.071-32.633 9.216-45.898 6.144-13.264 14.811-23.417 26.001-30.457 11.188-7.038 24.027-10.559 38.513-10.559 14.484 0 27.323 3.479 38.513 10.437 11.188 6.958 19.836 16.968 25.94 30.029s9.195 28.259 9.277 45.593v9.889zm-30.884-9.278c0-19.693-3.723-34.79-11.169-45.288s-18.005-15.747-31.677-15.747c-13.348 0-23.785 5.23-31.311 15.686-7.528 10.458-11.374 25.25-11.536 44.373v10.254c0 19.531 3.803 34.628 11.414 45.288 7.608 10.662 18.167 15.991 31.677 15.991 13.672 0 24.189-5.207 31.555-15.625 7.364-10.416 11.047-25.635 11.047-45.654v-9.278zm426.977 93.506h-30.762v-78.857h-79.468v78.857h-30.884V755.325h30.884V829.3h79.468v-73.975h30.762v177.734zm399.878 0h-30.884l-79.224-126.099v126.099h-30.884V755.325h30.884l79.468 126.587V755.325h30.64v177.734zM275.749 1215.43v55.664h-20.625v-142.188h57.686c17.115 0 30.524 3.972 40.229 11.914 9.703 7.943 14.556 18.457 14.556 31.543 0 13.803-4.745 24.431-14.233 31.885-9.49 7.455-23.079 11.182-40.767 11.182h-36.846zm0-15.332h37.061c11.027 0 19.479-2.363 25.352-7.092 5.871-4.728 8.809-11.561 8.809-20.496 0-8.478-2.938-15.261-8.809-20.348-5.873-5.087-13.93-7.729-24.17-7.924H275.75v55.86zm237.23-18.457c-3.008-.455-6.268-.684-9.775-.684-13.035 0-21.879 5.046-26.533 15.137v75h-19.873V1165.43h19.336l.322 12.207c6.516-9.439 15.754-14.16 27.715-14.16 3.867 0 6.803.456 8.809 1.367v16.797zm76.85 35.644c0-10.352 2.237-19.661 6.714-27.93 4.475-8.268 10.705-14.648 18.691-19.141 7.984-4.492 17.097-6.738 27.339-6.738 15.826 0 28.628 4.98 38.403 14.941s14.663 23.21 14.663 39.746v1.27c0 10.287-2.167 19.516-6.499 27.686-4.334 8.171-10.527 14.535-18.584 19.092-8.057 4.558-17.313 6.836-27.769 6.836-15.756 0-28.521-4.98-38.296-14.941s-14.663-23.145-14.663-39.551v-1.27zm19.98 2.149c0 11.719 2.989 21.127 8.97 28.223 5.979 7.097 13.981 10.645 24.009 10.645 10.098 0 18.117-3.597 24.063-10.791 5.943-7.193 8.916-17.269 8.916-30.225 0-11.588-3.026-20.979-9.077-28.174-6.053-7.193-14.091-10.791-24.116-10.791-9.813 0-17.725 3.549-23.74 10.645-6.017 7.096-9.025 17.252-9.025 30.468zm209.193 2.734l-12.461 11.816v37.109h-19.873v-150h19.873v90.723l10.635-11.621 36.201-34.766h24.17l-45.225 44.141 50.488 61.523H859.5l-40.498-48.925zm139.799-4.883c0-10.352 2.237-19.661 6.714-27.93 4.475-8.268 10.705-14.648 18.691-19.141 7.984-4.492 17.097-6.738 27.339-6.738 15.826 0 28.628 4.98 38.403 14.941s14.663 23.21 14.663 39.746v1.27c0 10.287-2.167 19.516-6.499 27.686-4.334 8.171-10.527 14.535-18.584 19.092-8.057 4.558-17.313 6.836-27.769 6.836-15.756 0-28.521-4.98-38.296-14.941s-14.663-23.145-14.663-39.551v-1.27zm19.981 2.149c0 11.719 2.989 21.127 8.97 28.223 5.979 7.097 13.982 10.645 24.009 10.645 10.098 0 18.117-3.597 24.063-10.791 5.943-7.193 8.916-17.269 8.916-30.225 0-11.588-3.026-20.979-9.077-28.174-6.053-7.193-14.091-10.791-24.116-10.791-9.813 0-17.725 3.549-23.741 10.645-6.016 7.096-9.024 17.252-9.024 30.468zm274.936 0c0 16.081-4.047 29.037-12.139 38.867-8.094 9.831-19.051 14.746-32.871 14.746-14.109 0-25.209-4.068-33.301-12.207v50.879h-19.873V1165.43h18.154l.967 11.719c8.092-9.114 19.336-13.672 33.73-13.672 13.965 0 25.011 4.785 33.14 14.355 8.127 9.57 12.192 22.885 12.192 39.941v1.661zm-19.873-2.051c0-11.914-2.793-21.321-8.379-28.223-5.586-6.9-13.25-10.352-22.988-10.352-12.031 0-21.055 4.851-27.07 14.551v50.488c5.943 9.636 15.039 14.453 27.285 14.453 9.523 0 17.097-3.434 22.72-10.303 5.62-6.867 8.432-17.072 8.432-30.614zm111.224-79.981c0-2.93.983-5.403 2.954-7.422 1.969-2.018 4.888-3.027 8.755-3.027s6.803 1.01 8.809 3.027c2.004 2.019 3.008 4.492 3.008 7.422s-1.004 5.371-3.008 7.324c-2.006 1.953-4.941 2.93-8.809 2.93s-6.786-.977-8.755-2.93c-1.97-1.953-2.954-4.394-2.954-7.324zm21.485 133.692h-19.873V1165.43h19.873v105.664zm146.029 1.953c-15.756 0-28.574-4.703-38.457-14.111-9.883-9.407-14.824-21.988-14.824-37.744v-3.32c0-10.481 2.202-19.84 6.606-28.076 4.404-8.235 10.563-14.681 18.477-19.336 7.912-4.654 16.489-6.982 25.728-6.982 15.109 0 26.855 4.525 35.234 13.574 8.379 9.05 12.568 22.006 12.568 38.867v7.52h-78.74c.285 10.417 3.634 18.832 10.044 25.244 6.408 6.413 14.556 9.619 24.438 9.619 7.018 0 12.961-1.302 17.832-3.906 4.869-2.604 9.131-6.055 12.783-10.352l12.139 8.594c-9.74 13.606-24.349 20.409-43.828 20.409zm-2.471-94.727c-8.021 0-14.754 2.653-20.195 7.959-5.443 5.307-8.809 12.744-10.098 22.314h58.223v-1.367c-.574-9.18-3.295-16.292-8.164-21.338-4.871-5.044-11.459-7.568-19.766-7.568zm173.744 68.262l28.789-81.152h20.303l-41.68 105.664h-15.146l-42.109-105.664h20.303l29.54 81.152z"/><path d="M1980 20v1960H20V20h1960m20-20H0v2000h2000V0z"/></svg>